<svg class="fsd-logo" version="1.1" xmlns="http://www.w3.org/2000/svg" xmlns:xlink="http://www.w3.org/1999/xlink" x="0px" y="0px" viewBox="0 0 493 162" xml:space="preserve">
    <g class="logo-shadows">
        <path d="M0.8,150.153l18.266-13.518l4.55,0.283V38.41
            c0-6.141,0.332-8.21-4.483-10.025C16.592,27.426,0.8,27.904,0.8,27.904V17.448c0,0,0-0.125,0-0.125s0-0.063,0-0.063L18.957,3.708
            l144.583,0.17c0,0,2.1,52.005,2.1,52.005l-18.562,13.545l-10.548-0.002c-3.177-13.179-10.809-26.927-18.33-32.205
            c-7.522-5.279-15.833-9.449-36.058-9.449c-7.521,0-13.896,1.549-15.943,2.963c-2.049,1.414-3.205,3.315-3.205,7.18l0,1.867
            c0,0,0.04,42.184,0.04,42.184c13.872,0.207,20.868-2.623,25.758-7.661c4.889-5.036,6.497-9.036,9.004-20.077l18.241-13.23
            l11.354,67.914l-18.562,13.545l-10.708-0.041c-1.755-11.453-5.85-18.734-11.156-23.98c-5.308-5.244-9.966-4.969-23.756-4.969
            l-0.131,44.034c-0.04,7.305-0.674,2.869,3.38,5.137c3.727,2.084,35.44,2.084,40.687,2.422l0.062,2.078l-17.999,13.5L0.8,160.509
            V150.153z"/>
        <path d="M168.634,104.51l14.979-11.188l2.516,0.922
            c5.992,13.955,15.579,30.396,23.912,36.797c9.164,7.044,13.902,11.526,25.666,12.833c18,2,18.664,5.334,25.834-1.666
            c4.898-4.783,8-8.158,8-13.499c0-6.219-3.013-12.443-8.075-16.365c-3.35-2.568-16.834-5.002-29.151-6.928
            c0,0-17.516-2.574-27.516-5.574c-10-3-20.5-10.166-27-17.333c-6.272-6.915-8.999-17.967-8.999-27.499
            c0-10.141,5.112-20.378,14-29.168c8.885-8.788,25.39-18.3,43.742-18.3c9.34,0,20.58-2.726,29,0.5c8.604,3.296,11.407,1.5,10.167,1.5
            c-0.666,0,10.195,3.588,10.195,3.588l28.179,41.077L288.8,65.176l-10.834,0.334c-3.369-10.472-13.33-23.434-21.834-31
            c-8.502-7.566-18.339-11.668-30.499-11.668c-8.547,0-12.467,0.525-18.305,2.809c-6.029,2.357-11.696,4.691-13.362,15.691
            c-1.202,7.938,3.009,13.254,7.667,16.5c4.573,3.312,19.167,6.166,37.167,9.333l18.501,4.667c8.832,2.167,20.498,7.5,26.832,13.667
            c8.791,8.557,11.334,19.459,11.334,30.666c0,10.467-5.205,23.05-15.334,32.333c-10.131,9.283-24.187,13.865-46.501,13.168
            c-12.299-0.385-37.67-5.771-42.336-9.605l-12.164,8.938l-9.519-0.834L168.634,104.51z"/>
        <path d="M444.307,20.002c15.157,12.475,29.663,47.947,29.663,69.458
            c0,19.293-4.701,37.18-19.695,50.573c-16.889,15.059-30.168,21.178-70.17,21.178h-79.955v-10.982l18.102-13.18l4.67,0.424
            l-0.146-97.879c0-5.482,0.703-9.205-3.994-11.356c-2.719-1.249-18.721-0.532-18.721-0.532l0.09-10.559l18.042-13.215
            C322.191,3.932,430.396,8.553,444.307,20.002z M367.207,136.708c1.688,1.943,9.646,7.668,15.167,7.668
            c14.992,0,24.283,4.129,33.922-4.789c9.639-8.915,13.84-24.976,13.84-50.306c0-15.058-0.49-28.3-5.68-39.125
            c-8.404-17.419-23.539-22.979-43.477-22.979c-6.592,0-11.596,2.167-13.574,4.525c-1.318,1.527-1.221,6.097-1.221,10.469
            l0.022,83.203C366.455,129.746,365.518,134.767,367.207,136.708z"/>
    </g>
    <g class="logo-foreground">
        <path d="M19.363,136.608c0,0,15.306,0.406,18.348-0.527
            c5.02-1.539,4.469-5.688,4.469-11.763V24.865c0-6.141,0.332-8.21-4.483-10.025c-2.542-0.958-18.333-0.48-18.333-0.48V3.714
            l144.451,0.128l1.824,52.041l-10.548-0.002c-3.177-13.179-10.809-26.927-18.33-32.205c-7.522-5.279-15.833-9.449-36.058-9.449
            c-7.521,0-13.896,1.549-15.943,2.963c-2.049,1.414-3.205,3.315-3.205,7.18l0.041,44.051c13.872,0.207,20.868-2.623,25.758-7.661
            c4.889-5.036,6.497-9.036,9.004-20.077l11.154-0.041l-0.121,68.269l-10.708-0.041c-1.755-11.453-5.85-18.734-11.155-23.98
            c-5.309-5.244-10.096-6.083-23.886-6.083l-0.001,45.15c-0.04,7.305,0.893,9.21,4.947,11.478c4.072,2.277,20.646,1.217,20.646,1.217
            v10.314H19.363V136.608z"/>
        <path d="M183.957,93.287l10.333,0.334
            c5.498,15.5,14.166,25.793,23.332,32.832c9.164,7.044,14.402,12.026,26.166,13.335c18,2,27.5-0.5,34.67-7.501
            c4.898-4.783,6.832-8.99,6.832-14.332c0-6.219-3.438-12.91-8.5-16.834c-3.35-2.566-16.834-5-29.152-6.928
            c0,0-17.516-2.572-27.516-5.572s-20.5-10.167-27-17.333c-6.272-6.915-8.999-17.967-8.999-27.499
            c0-10.141,5.112-20.378,13.999-29.168c8.886-8.788,24.482-13.832,42.833-13.832c9.34,0,18.477,1.645,26.896,4.87
            c8.604,3.296,12.604,6.63,12.604,6.63l10.771-10.38l10.396,0.046l2.5,52l-10.834,0.334c-3.369-10.472-13.33-23.434-21.834-31
            c-8.502-7.566-18.34-11.668-30.5-11.668c-8.547,0-12.467,0.525-18.305,2.809c-6.029,2.357-11.695,4.691-13.361,15.691
            c-1.203,7.938,3.008,13.254,7.666,16.5c4.572,3.312,19.166,6.166,37.166,9.333l18.502,4.667c8.832,2.167,20.498,7.5,26.832,13.667
            c8.791,8.558,11.334,19.46,11.334,30.667c0,10.467-5.205,23.049-15.334,32.333c-10.131,9.283-24.176,13.166-46.502,13.166
            c-5.125,0-16.748-1.67-21.666-3.666c-5.334-2.166-13.5-5.666-18.166-9.5l-14.667,12.5l-9.519-0.834L183.957,93.287z"/>
        <path d="M322.473,137.007c6.342-0.346,15.475,0.559,18.277-0.621
            c4.943-2.15,4.523-5.397,4.523-11.089l-0.176-98.924c0-5.482,0.703-9.205-3.994-11.356c-2.719-1.249-18.721-0.532-18.721-0.532
            l0.09-10.559h77.359c39.137,0,54.684,4.088,71.078,18.105c14.91,12.769,21.383,32.697,21.383,54.209
            c0,19.293-4.701,37.178-19.695,50.573c-16.889,15.058-30.168,21.179-70.17,21.179h-79.955V137.007z M387.238,134.526
            c1.688,1.943,5.658,2.574,11.18,2.574c14.992,0,26.562-1.816,36.201-10.735c9.639-8.916,13.84-24.975,13.84-50.305
            c0-15.059-0.49-28.301-5.68-39.125c-8.404-17.419-23.539-22.979-43.477-22.979c-6.592,0-11.596,2.167-13.574,4.525
            c-1.318,1.527-1.221,6.097-1.221,10.469v96.704C384.756,130.025,385.549,132.584,387.238,134.526z"/>
    </g>
    <g class="logo-lines">
        <line x1="19.249" y1="146.958" x2="0.707" y2="160.333"/>
        <line x1="19.363" y1="14.359" x2="0.999" y2="27.75"/>
        <line x1="155.091" y1="55.881" x2="136.457" y2="68.917"/>
        <line x1="293.289" y1="54.289" x2="281.625" y2="63.659"/>
        <line x1="184.935" y1="148.954" x2="169.582" y2="159.792"/>
        <line x1="178.989" y1="161.108" x2="194.267" y2="149.872"/>
        <line x1="322.58" y1="14.359" x2="304.257" y2="27.581"/>
        <line x1="322.473" y1="147.991" x2="304.149" y2="161.212"/>
    </g>
</g>
</svg>
